<svg width="1921" height="338" viewBox="0 0 1921 338" fill="none" xmlns="http://www.w3.org/2000/svg">
<g clip-path="url(#clip0_53_26)">
<path d="M1920.31 0.660004C1809.18 113.72 1701.11 160.06 1615.12 147.47C1570.02 140.87 1538.72 134.95 1432.87 96.84C1264.12 36.09 1108.87 12.46 1024.65 123.95C853.76 350.2 754.5 336.47 420.38 268.97C180.85 220.58 0.25 307.79 0.25 307.79V336.48C9.61 324.6 164.07 239.62 417 290.91C606.75 329.39 862.5 405.66 1039.69 142.41C1090.76 66.53 1216.8 53.7 1324.88 81.66C1356.76 89.91 1460.42 131.2 1491.94 140.72C1618.24 178.89 1692.86 181.16 1795.69 127.22C1805.05 122.31 1920 51.53 1920.25 34.41C1920.71 2.54 1918.53 24.91 1920.31 0.660004Z" fill="white" stroke="black" stroke-width="0.5" stroke-miterlimit="10"/>
</g>
<defs>
<clipPath id="clip0_53_26">
<rect width="1920.61" height="337.19" fill="white"/>
</clipPath>
</defs>
</svg>
