<svg width="245" height="166" viewBox="0 0 245 166" fill="none" xmlns="http://www.w3.org/2000/svg">
<path d="M220.703 0H24.2976C10.8992 0 0 11.2802 0 25.1481V140.852C0 154.719 10.8992 166 24.2976 166H220.703C234.101 166 245 154.719 245 140.852V25.1481C245.001 11.2802 234.102 0 220.703 0ZM228.803 25.1481V140.852C228.803 142.175 228.443 143.382 227.912 144.495L170.652 85.2262L228.786 25.0577C228.786 25.0911 228.803 25.1152 228.803 25.1481ZM16.1984 140.851V25.1481C16.1984 25.1152 16.2148 25.0916 16.2148 25.0582L74.3485 85.2267L17.0846 144.494C16.5584 143.382 16.1984 142.175 16.1984 140.851ZM125 108.771C123.664 110.153 121.337 110.153 120.001 108.771L31.1115 16.7654H213.893L125 108.771ZM85.8013 97.0809L108.548 120.624C112.277 124.484 117.233 126.608 122.5 126.608C127.768 126.608 132.724 124.484 136.453 120.624L159.201 97.0809L209.586 149.235H35.4109L85.8013 97.0809Z" fill="#6399CE"/>
</svg>
